:SAMPLES-PER-SECOND 30
:FRAME-RANGE 1-3358
:FULLY-SPECIFIED
:DEGREES
3254
root  58.0383 38.6579 20.9433 -177.717 -18.2213 -178.073
RightUpLeg  11.3981 -6.12152 -4.68935
RightLeg  3.61449 -5.40245 -1.25052
RightFoot  -16.844 0.510642 12.9626
RightToes  -5.8209e-011 0 -3.6325e-017
Spine  8.80626 1.01398 1.19851
Spine1  -0.734223 1.54265 -2.95444
HEad  -9.71095 32.5877 -9.66372
LeftShoulder1  1.05674 0.531216 -29.4643
LeftArm  -0.200549 18.7834 -25.8777
LeftForeArm  10.8251 -2.05228 -17.0013
LeftHand  0.503688 -2.18078 -7.5556
RightShoulder  2.7003 1.46295 47.725
RightArm  25.9694 -6.85797 11.9336
RightForeArm  13.5983 -0.480844 18.8776
RightHand  0.898125 7.69762 7.56048
LeftUpLeg  -25.1558 12.2334 2.75672
LeftLeg  7.03323 23.8017 -1.34453
LeftFoot  5.66145 -0.307649 1.82796
LeftToes  -4.03819e-010 -8.71445e-011 8.52097e-011
3255
root  57.1131 38.3478 19.8166 -178.192 -16.6271 -179.091
RightUpLeg  12.915 -6.95054 -7.22335
RightLeg  6.34837 -5.01244 -2.26795
RightFoot  -18.4232 0.858324 15.8095
RightToes  -5.8209e-011 0 -3.6325e-017
Spine  9.33896 0.966361 -1.37896
Spine1  -1.76535 1.12664 -2.02978
HEad  -9.87349 33.5338 -9.38227
LeftShoulder1  1.05955 0.579911 -30.162
LeftArm  1.35015 19.6844 -24.448
LeftForeArm  8.53257 -1.02112 -17.5465
LeftHand  0.507927 -1.85639 -7.99331
RightShoulder  2.88185 1.79695 47.7109
RightArm  22.5304 -6.02392 12.3995
RightForeArm  12.21 0.00088738 18.4861
RightHand  0.770284 7.25798 6.68093
LeftUpLeg  -27.2606 19.7635 -2.50779
LeftLeg  14.4798 15.3244 3.26552
LeftFoot  7.39906 -0.944753 5.44744
LeftToes  -4.03819e-010 -8.71445e-011 8.52097e-011
3256
root  56.1776 38.1243 18.7411 -178.316 -16.7783 179.758
RightUpLeg  13.2751 -7.22101 -9.67256
RightLeg  11.1246 -6.8586 -3.17523
RightFoot  -18.5652 1.15927 20.1818
RightToes  -5.8209e-011 0 -3.6325e-017
Spine  9.86169 0.686281 -3.48091
Spine1  -2.75005 0.529572 -1.38789
HEad  -10.361 33.8389 -9.42934
LeftShoulder1  1.15766 0.376809 -30.9567
LeftArm  4.00949 18.318 -23.6175
LeftForeArm  5.72523 0.0379222 -18.1769
LeftHand  0.472915 -1.40239 -7.97766
RightShoulder  2.66549 1.38231 47.8928
RightArm  20.3174 -5.69983 13.4342
RightForeArm  10.0841 4.66018 16.9981
RightHand  0.675776 7.15082 5.87407
LeftUpLeg  -28.1629 20.0311 -4.69904
LeftLeg  21.1719 13.7124 6.10596
LeftFoot  3.57952 -0.687321 5.07934
LeftToes  -4.03819e-010 -8.71445e-011 8.52097e-011
3257
root  55.2542 38.1876 17.8508 -178.409 -16.3941 178.786
RightUpLeg  12.6526 -5.0764 -11.5574
RightLeg  16.4489 -11.935 -4.36828
RightFoot  -15.4879 0.885451 26.923
RightToes  -5.8209e-011 0 -3.6325e-017
Spine  9.91062 0.860757 -4.20492
Spine1  -2.24029 0.91366 -3.05765
HEad  -10.9287 33.9493 -10.1097
LeftShoulder1  1.24659 0.177934 -31.4225
LeftArm  4.1671 15.0721 -24.3623
LeftForeArm  5.66332 1.67835 -18.4781
LeftHand  0.456033 -1.23048 -7.90764
RightShoulder  2.80854 1.64685 47.8597
RightArm  26.4198 -6.36519 14.8914
RightForeArm  -1.08136 12.2228 13.8218
RightHand  0.59248 6.88378 5.23241
LeftUpLeg  -26.5348 19.9121 -5.84498
LeftLeg  23.135 14.1149 6.84536
LeftFoot  0.577727 -0.511897 4.86731
LeftToes  -4.03819e-010 -8.71445e-011 8.52097e-011
3258
root  54.327 38.3631 17.0046 -178.133 -15.8631 178.014
RightUpLeg  8.78836 -4.82149 -13.2496
RightLeg  25.9022 -14.1396 -7.57125
RightFoot  -10.0444 -0.399197 28.5891
RightToes  -5.8209e-011 0 -3.6325e-017
Spine  9.79678 1.16343 -4.78999
Spine1  -2.31854 1.23096 -3.91507
HEad  -10.7651 35.2282 -11.0769
LeftShoulder1  1.26335 0.184213 -31.9999
LeftArm  5.40573 11.6884 -25.6141
LeftForeArm  5.21859 1.27494 -18.5725
LeftHand  0.427206 -1.12213 -7.53719
RightShoulder  3.30286 2.53825 47.9518
RightArm  33.7601 -6.22335 16.1509
RightForeArm  -10.4206 18.0988 9.58709
RightHand  0.531024 6.59799 4.78037
LeftUpLeg  -24.5203 19.6861 -6.91713
LeftLeg  23.2541 14.7594 7.17453
LeftFoot  -1.491 -0.387136 4.59487
LeftToes  -4.03819e-010 -8.71445e-011 8.52097e-011
3259
root  53.3744 38.7163 16.1122 -178.287 -16.0451 177.986
RightUpLeg  3.41596 -4.65228 -13.411
RightLeg  36.8658 -15.9907 -12.7371
RightFoot  -0.245803 -1.69946 17.3563
RightToes  -5.8209e-011 0 -3.6325e-017
Spine  9.7223 1.23795 -4.37693
Spine1  -2.49609 1.37887 -3.95184
HEad  -10.4001 36.8854 -11.9451
LeftShoulder1  1.29094 0.121672 -32.1129
LeftArm  6.02757 7.91726 -27.7765
LeftForeArm  6.06579 0.480338 -18.4575
LeftHand  0.420862 -1.38605 -7.10673
RightShoulder  3.75661 3.37106 47.9141
RightArm  36.9335 -5.74804 16.9574
RightForeArm  -12.187 22.8571 5.80373
RightHand  0.556215 6.52719 5.05696
LeftUpLeg  -21.1508 20.3092 -7.28715
LeftLeg  21.1179 14.2201 6.21431
LeftFoot  -2.9498 -0.273083 3.96394
LeftToes  -4.03819e-010 -8.71445e-011 8.52097e-011
3260
root  52.5604 38.8838 15.3399 -178.491 -16.2906 177.528
RightUpLeg  -1.69617 -2.98213 -13.4492
RightLeg  44.7415 -11.8858 -12.6136
RightFoot  4.09113 -1.75489 13.1074
RightToes  -5.8209e-011 0 -3.6325e-017
Spine  9.84405 1.4331 -4.83342
Spine1  -2.18125 1.49296 -4.36453
HEad  -10.2404 38.7554 -12.6134
LeftShoulder1  1.34571 -0.0475706 -31.8382
LeftArm  5.94653 3.80814 -30.3532
LeftForeArm  8.02043 -0.563901 -18.1247
LeftHand  0.422984 -1.91025 -6.57913
RightShoulder  4.32395 4.39296 47.9993
RightArm  31.7728 -4.92065 17.118
RightForeArm  -3.90825 26.716 5.95042
RightHand  0.654436 6.92714 5.79261
LeftUpLeg  -17.9666 18.7262 -6.87918
LeftLeg  20.1061 16.0523 4.81931
LeftFoot  -4.59362 -0.196132 3.79582
LeftToes  -4.03819e-010 -8.71445e-011 8.52097e-011
3261
root  51.7974 38.9715 14.5712 -178.82 -17.4426 177.398
RightUpLeg  -5.81888 -1.91097 -12.9712
RightLeg  49.496 -5.48945 -7.18476
RightFoot  2.62765 -1.82734 14.9851
RightToes  -5.8209e-011 0 -3.6325e-017
Spine  9.96994 1.30833 -5.55958
Spine1  -1.81136 1.09812 -4.03089
HEad  -9.92079 40.6421 -13.0731
LeftShoulder1  1.43762 -0.285798 -31.8851
LeftArm  8.81435 -0.481521 -32.6302
LeftForeArm  7.43893 -3.09052 -17.6877
LeftHand  0.385781 -2.14164 -5.78183
RightShoulder  4.77483 5.21787 47.9823
RightArm  27.7957 -3.95215 17.1277
RightForeArm  2.58774 30.6556 6.56342
RightHand  0.719334 7.22808 6.2325
LeftUpLeg  -15.0421 14.4439 -5.8847
LeftLeg  19.687 19.5452 3.66131
LeftFoot  -6.26579 -0.108966 3.30969
LeftToes  -4.03819e-010 -8.71445e-011 8.52097e-011
